<svg version="1.1" id="Layer_1" xmlns="http://www.w3.org/2000/svg" xmlns:xlink="http://www.w3.org/1999/xlink" x="0px" y="0px"
	 width="100%" viewBox="0 0 496 496" enable-background="new 0 0 496 496" xml:space="preserve">
<path fill="#000000" opacity="1.000000" stroke="none" 
	d="
M269.012939,147.956589 
	C281.904877,143.010773 293.979553,136.959290 307.325562,134.386536 
	C309.841492,133.901535 312.135956,132.182724 314.483063,130.939667 
	C315.836060,130.223114 316.977814,130.197388 318.076538,131.350281 
	C318.978607,132.296814 319.082367,133.285934 318.700531,134.544678 
	C315.552795,144.921951 316.267517,155.730530 315.276306,166.347961 
	C314.998260,169.326218 314.930420,172.296066 314.263702,175.250198 
	C313.568146,178.332352 312.491974,180.699051 309.090210,180.191681 
	C305.075287,197.056244 301.210938,213.532715 297.184235,229.969437 
	C296.487030,232.815491 295.788330,235.453033 298.323334,238.231506 
	C295.505096,239.029572 294.190887,240.597305 293.563904,243.053894 
	C292.578888,246.913467 291.259552,250.693817 289.959015,254.465393 
	C287.776794,260.793732 286.828125,261.346222 280.575714,258.537567 
	C271.944214,254.660126 263.328735,250.694305 254.999664,246.220383 
	C251.344971,244.257248 248.618576,244.446228 245.424957,246.642624 
	C238.164703,251.635864 230.787811,256.459167 223.499466,261.412079 
	C219.914261,263.848480 215.972763,265.405090 212.170837,266.930786 
	C210.116501,265.093658 210.735641,263.222748 211.027206,261.488770 
	C213.010529,249.693817 215.118134,237.915039 218.319046,226.381927 
	C219.301849,222.840805 218.471909,220.813690 215.603638,218.372574 
	C204.824585,209.198730 194.863144,199.134354 185.404068,188.599792 
	C181.136749,183.847260 181.754730,181.769974 187.592056,178.924683 
	C197.629593,174.032089 208.346313,170.930084 218.739227,166.976669 
	C235.364456,160.652557 252.014084,154.392532 269.012939,147.956589 
M281.180847,177.676743 
	C274.606445,185.638290 267.151398,192.805496 260.113525,200.326843 
	C253.010818,207.917480 246.920349,216.640060 237.765289,222.274200 
	C233.436707,224.938065 233.802307,226.419937 237.710770,229.722427 
	C251.365875,241.260529 268.502228,246.374817 283.746979,254.962372 
	C285.449768,253.740173 285.731628,251.819321 286.248810,250.129028 
	C290.738434,235.456299 293.202728,238.006744 277.640259,232.651581 
	C272.713043,230.956100 267.886566,228.972061 263.293823,226.178101 
	C263.963440,225.027222 264.317932,224.476135 264.616150,223.896118 
	C266.602295,220.033325 268.996429,216.244583 274.035706,217.501450 
	C278.756836,218.678986 281.506226,222.124466 282.096924,227.201431 
	C282.710724,232.476944 286.645905,232.999802 290.990356,233.156067 
	C291.385468,232.021561 291.747009,231.106400 292.025177,230.166565 
	C298.497772,208.298203 302.789032,185.933731 307.214233,163.597260 
	C307.682312,161.234406 306.977142,159.744629 304.972229,158.647171 
	C302.617249,157.358047 300.616302,157.540512 298.756531,159.675262 
	C293.395264,165.829178 287.792328,171.755417 281.180847,177.676743 
M200.166031,178.771072 
	C196.428329,180.674469 191.832458,180.793442 188.282867,184.322296 
	C197.947891,195.714066 208.786972,205.518463 219.495132,215.447433 
	C220.670761,216.537521 222.049240,216.969498 223.490372,215.637512 
	C225.629242,213.660645 227.830475,211.751221 230.326309,209.526871 
	C224.228394,204.927811 218.586655,200.672806 212.189178,195.847824 
	C218.141525,191.411026 223.444504,187.845322 230.385178,185.950974 
	C230.827789,190.665695 229.781555,194.510513 229.210907,198.382065 
	C228.742355,201.560867 229.969650,204.176300 232.521362,205.656616 
	C235.259323,207.244949 236.625687,204.419434 238.108963,202.829727 
	C240.513611,200.252518 243.423920,198.306458 246.043335,196.009918 
	C255.545685,187.678864 264.903748,179.188614 272.885864,169.321228 
	C274.835663,166.910934 275.314209,164.415421 273.775879,161.780289 
	C271.083130,160.843781 269.648865,165.453232 266.522522,162.559357 
	C276.453400,156.063812 286.314453,149.842743 296.457367,143.976242 
	C264.634003,155.709839 232.865005,167.381332 200.166031,178.771072 
M229.738327,234.504242 
	C226.323837,242.172195 221.671936,249.307480 219.164261,258.846130 
	C228.602829,252.895355 237.052521,247.568039 246.360336,241.699692 
	C241.558685,238.071167 237.520584,234.964142 233.420166,231.941666 
	C230.917435,230.096848 230.886887,232.748810 229.738327,234.504242 
z"/>
<path fill="#000000" opacity="1.000000" stroke="none" 
	d="
M196.993652,306.994843 
	C195.484909,302.006317 191.720764,299.619415 187.048996,298.099518 
	C185.308212,297.533173 182.569870,297.104706 183.554489,294.299561 
	C184.560928,291.432190 187.092270,292.451324 189.106537,293.082825 
	C195.296463,295.023468 200.414276,299.339539 205.246338,306.721008 
	C205.815552,301.491455 208.876617,299.995087 213.128220,301.261353 
	C217.453156,302.549438 217.606644,306.066498 216.825180,309.801544 
	C216.163452,312.964294 215.019882,316.271820 218.797241,318.448669 
	C222.028885,316.526611 221.505417,313.354218 222.194183,310.753143 
	C223.302811,306.566528 229.826004,301.929047 233.859879,302.901154 
	C237.347900,303.741760 237.751785,306.514740 237.456406,309.587524 
	C237.129654,312.986481 235.305664,316.291931 236.800934,320.091339 
	C240.844589,320.005188 241.794769,317.057098 241.794418,314.082855 
	C241.793625,307.283844 246.693802,305.741913 251.679886,304.096344 
	C253.689529,303.433105 255.262177,304.102570 256.540894,305.659515 
	C257.680389,307.046906 258.299896,308.659760 257.234009,310.250519 
	C253.002472,316.565826 249.660797,323.616791 242.704819,327.696869 
	C232.900421,333.447723 230.903275,333.070770 224.243896,323.703949 
	C220.808426,325.028839 218.861969,329.070374 214.692703,329.248260 
	C210.317627,329.434937 207.715134,326.898956 205.697174,323.364990 
	C203.634491,326.490997 202.028030,329.423309 199.950287,331.971283 
	C195.555237,337.360992 189.295792,338.892670 183.414795,336.352448 
	C176.944504,333.557709 173.028595,327.563477 173.745773,321.000793 
	C174.276093,316.147949 175.956665,311.553101 178.860397,307.631317 
	C184.126785,300.518494 189.904266,300.272369 196.788071,307.175110 
	C197.463776,311.172363 195.787628,312.203033 192.625504,311.776550 
	C188.742294,311.252716 188.600342,314.489990 187.873215,316.897827 
	C187.045853,319.637543 186.579803,322.531860 189.029999,324.758698 
	C190.599030,326.184692 191.821289,324.746887 192.815353,323.712494 
	C197.386398,318.956024 199.492310,313.539032 196.993652,306.994843 
z"/>
<path fill="#000000" opacity="1.000000" stroke="none" 
	d="
M333.988129,306.998199 
	C332.220032,302.535400 329.093445,299.607330 324.425720,298.279968 
	C322.411469,297.707184 319.513275,297.208527 320.435394,294.318115 
	C321.446411,291.149017 324.274933,292.508667 326.391571,293.221222 
	C331.056549,294.791656 335.071289,297.425934 338.234894,301.245117 
	C339.704651,303.019440 341.360107,304.245209 343.824677,303.658020 
	C346.352783,303.055786 346.357513,300.886810 346.733276,298.956482 
	C347.113800,297.001953 347.445740,295.037567 347.849213,293.087921 
	C348.643280,289.250427 351.849640,287.028076 355.518036,287.779510 
	C359.590881,288.613708 360.366547,291.221008 359.348511,294.864014 
	C358.902924,296.458374 358.610535,298.103516 358.360168,299.742615 
	C357.993927,302.140289 357.365387,304.220612 360.311310,306.125000 
	C363.229095,308.011230 362.284454,311.420624 358.814240,312.168274 
	C356.284088,312.713318 355.678040,314.109924 355.300873,316.245667 
	C354.172852,322.632935 352.898987,328.990997 353.321930,335.541870 
	C353.474762,337.908905 353.544983,340.556396 350.484009,341.111176 
	C347.235626,341.699921 346.265167,339.275085 345.561005,336.688049 
	C343.818085,330.284576 345.030640,323.762482 344.685028,317.305237 
	C344.564423,315.051788 345.284637,312.735901 343.874359,309.405090 
	C342.929871,315.187439 343.611877,320.146088 341.473724,324.714050 
	C339.365692,329.217651 336.796082,333.295837 332.516571,335.773010 
	C323.979187,340.714844 311.422241,333.906891 310.762329,323.961060 
	C310.326324,317.390106 312.576996,311.369720 316.889435,306.490265 
	C322.356323,300.304535 327.383148,300.519592 333.799805,307.162781 
	C334.344818,310.650818 333.268341,312.477875 330.134430,311.795990 
	C327.262878,311.171204 326.116180,312.708527 325.395569,314.941803 
	C324.370880,318.117249 323.197998,321.422485 325.634766,324.433228 
	C327.113098,326.259796 328.605774,325.145233 329.823853,323.835297 
	C334.321259,318.998688 336.506927,313.576538 333.988129,306.998199 
z"/>
<path fill="#000000" opacity="1.000000" stroke="none" 
	d="
M127.135254,274.788605 
	C136.178558,272.953278 144.990448,273.722229 153.645889,272.607452 
	C155.574081,281.568085 153.474533,284.270477 144.578415,284.242432 
	C141.417969,284.232483 138.153152,284.572998 135.123367,283.904388 
	C131.046021,283.004578 129.197250,284.222961 128.668640,288.252686 
	C128.069443,292.820435 127.245316,297.358704 126.512878,301.948059 
	C129.763138,303.454590 132.793228,302.563232 135.707016,302.682617 
	C139.607407,302.842407 140.441391,305.155640 140.312271,308.340302 
	C140.188370,311.396637 139.653915,313.705841 135.479980,313.600403 
	C123.957520,313.309418 123.817009,313.454315 121.782471,324.918091 
	C120.158211,334.070160 118.934059,343.292877 117.492897,352.478058 
	C117.247253,354.043640 117.432205,356.058258 115.018723,356.140869 
	C113.037720,356.208740 112.144035,354.726746 111.319725,353.244537 
	C109.571152,350.100433 109.082001,346.551117 108.899170,343.123657 
	C108.286873,331.645355 108.559387,320.158752 109.923645,308.731506 
	C110.768608,301.653931 111.265648,294.513275 113.210197,287.603485 
	C113.536362,286.444519 113.428932,285.501984 112.729233,284.352631 
	C110.365349,280.469635 111.902679,277.522339 116.424438,276.750549 
	C119.858345,276.164429 123.276131,275.483887 127.135254,274.788605 
z"/>
<path fill="#000000" opacity="1.000000" stroke="none" 
	d="
M258.245667,314.410645 
	C259.925781,303.022644 262.834900,292.213226 261.673553,280.545227 
	C268.804840,280.437195 270.301361,285.991577 273.257843,289.998749 
	C275.923645,290.146271 277.628967,287.991058 279.796722,286.936707 
	C287.677338,283.103973 293.465698,285.402130 296.194611,293.691742 
	C299.178345,302.755280 300.208191,312.228210 301.008575,321.627686 
	C301.455109,326.871338 303.990356,330.210327 307.317535,333.530334 
	C308.233093,334.443909 309.618469,335.296295 309.119476,336.829224 
	C308.520111,338.670685 306.724823,338.308960 305.283569,338.393982 
	C295.173462,338.990326 289.492462,333.085724 288.732971,320.942841 
	C288.244995,313.140564 287.867279,305.323547 287.755402,297.508636 
	C287.694550,293.259399 285.987213,292.273285 282.151367,293.365234 
	C277.014282,294.827667 274.104706,298.313904 272.339447,303.145813 
	C269.103180,312.004028 268.526093,321.335022 267.485443,330.558228 
	C266.930664,335.475281 263.294098,336.535156 259.846100,336.905365 
	C256.298706,337.286285 255.100433,334.152710 255.491882,331.046448 
	C256.176208,325.616028 257.224243,320.231384 258.245667,314.410645 
z"/>
<path fill="#000000" opacity="1.000000" stroke="none" 
	d="
M374.329254,321.420288 
	C375.844727,327.445099 377.270233,328.414001 382.778961,327.553009 
	C386.137146,327.028107 389.413879,325.611511 392.813019,326.352325 
	C393.031464,326.942810 393.334076,327.365814 393.229004,327.533813 
	C389.386322,333.679413 383.161804,336.386353 376.560242,336.851654 
	C370.635437,337.269196 367.166748,332.603943 364.928070,327.385742 
	C359.692444,315.181915 365.255554,301.451385 376.680237,298.408661 
	C381.629395,297.090546 386.867706,299.880096 390.214172,305.473816 
	C392.813690,309.818939 390.106323,312.843811 387.540680,315.636139 
	C385.208862,318.173920 382.755249,320.818481 379.107666,321.598236 
	C376.218262,322.215912 375.186646,320.996979 376.382141,318.361176 
	C377.409088,316.096954 378.807343,313.998444 380.078217,311.848419 
	C381.023865,310.248627 381.749481,308.621155 381.704681,306.688934 
	C381.662323,304.859070 381.152496,303.191711 379.311371,302.740234 
	C377.111664,302.200775 376.513672,304.198669 375.987457,305.708008 
	C374.261902,310.657410 373.993378,315.798584 374.329254,321.420288 
z"/>
<path fill="#000000" opacity="1.000000" stroke="none" 
	d="
M156.681595,309.017212 
	C157.448792,301.452240 157.559937,294.287781 159.203918,287.292786 
	C159.578918,285.697266 159.814102,283.955170 159.585587,282.355988 
	C159.154007,279.335785 158.590424,276.659607 163.124603,276.736694 
	C167.910950,276.818085 171.796799,279.532135 171.376801,283.244659 
	C170.668274,289.507324 169.830627,295.779938 168.566116,301.949768 
	C166.228699,313.354645 164.544266,324.843231 163.268341,336.403625 
	C163.074097,338.163483 163.357285,340.593475 161.059479,340.860779 
	C158.528259,341.155182 157.975372,338.719147 157.540466,336.789642 
	C156.217361,330.919617 155.924759,324.954529 156.194580,318.956970 
	C156.336548,315.800629 156.513870,312.645935 156.681595,309.017212 
z"/>
<path fill="#000000" opacity="1.000000" stroke="none" 
	d="
M212.141205,353.932373 
	C233.647461,353.433258 245.739426,355.842499 249.785385,362.059204 
	C245.142654,359.356964 241.174591,363.346619 236.960403,361.390381 
	C235.387802,360.660339 233.486465,360.961334 232.324631,359.049103 
	C231.136826,357.094116 228.850037,357.386566 226.877411,357.330048 
	C203.383698,356.656860 180.078201,358.870575 156.829727,361.936432 
	C141.162003,364.002594 125.469307,365.911591 109.698845,363.225708 
	C103.671593,362.199188 98.778732,359.187897 95.665573,353.678253 
	C97.543411,352.181122 98.465034,352.958557 99.307770,353.795868 
	C106.752335,361.192596 116.252495,361.814026 125.777428,361.189117 
	C151.292923,359.515045 176.603592,355.370667 202.211853,354.691162 
	C205.365356,354.607513 208.510345,354.202911 212.141205,353.932373 
z"/>
<path fill="#000000" opacity="1.000000" stroke="none" 
	d="
M311.105774,237.427002 
	C310.940918,239.899002 312.021637,242.840744 309.564667,243.640137 
	C306.463867,244.648972 304.004333,242.503555 301.680695,239.987396 
	C304.166504,237.470932 308.354218,237.142715 308.815491,233.142761 
	C311.460449,233.927612 310.788757,235.698425 311.105774,237.427002 
z"/>
<path fill="#000000" opacity="1.000000" stroke="none" 
	d="
M260.545044,166.659576 
	C257.545563,171.620483 252.059097,172.849731 247.391495,175.357971 
	C251.047089,171.427826 255.304947,168.371277 260.545044,166.659576 
z"/>
</svg>